<svg version="1.2" xmlns="http://www.w3.org/2000/svg" viewBox="0 0 683 355" width="683" height="355">
	<title>Sequence Vertical Stack Blue-svg</title>
	<style>
		.s0 { fill: #1a446f } 
	</style>
	<path id="Layer" class="s0" d="m16.3 294.9q0 2.1 2.9 3.4 0.8 0.4 1.6 0.8 0.9 0.3 1.8 0.6 0.8 0.3 1.7 0.5 0.9 0.3 1.8 0.5 1 0.3 2 0.5 1.1 0.3 2.1 0.7 1 0.3 2 0.6 1 0.4 2 0.8 1 0.4 2 0.9 1 0.5 1.8 1.2 0.9 0.6 1.7 1.4 0.8 0.8 1.4 1.7 0.7 0.9 1.3 2 0.6 1.1 0.9 2.3 0.4 1.1 0.5 2.3 0.2 1.2 0.2 2.5 0 8.2-6.2 12.7-6.2 4.4-15.4 4.4-16.5 0-22.5-12.7l12-6.8q2.4 7 10.5 7 7.4 0 7.4-4.6 0-2.1-2.8-3.5-0.8-0.4-1.7-0.7-0.8-0.3-1.7-0.6-0.9-0.3-1.7-0.6-0.9-0.3-1.8-0.5-1-0.3-2.1-0.6-1-0.3-2-0.6-1-0.3-2.1-0.7-1-0.4-2-0.8-1-0.4-1.9-0.9-1-0.5-1.8-1.2-0.9-0.6-1.7-1.4-0.8-0.7-1.5-1.5-0.7-1-1.2-2-0.6-1-1-2.2-0.3-1.1-0.5-2.2-0.1-1.2-0.1-2.4-0.1-1.8 0.3-3.5 0.3-1.8 1.1-3.4 0.7-1.7 1.9-3.1 1.1-1.4 2.5-2.5 5.8-4.5 14.5-4.5 1.6-0.1 3.1 0.1 1.5 0.2 3 0.6 1.6 0.4 3 0.9 1.4 0.6 2.8 1.4 1.3 0.7 2.5 1.6 1.2 0.9 2.3 2 1.1 1 2 2.2 0.9 1.2 1.7 2.6l-11.8 6.4q-0.5-1.3-1.4-2.3-0.9-1.1-2-1.8-1.2-0.7-2.5-1.1-1.3-0.3-2.7-0.3-0.6 0-1.2 0.1-0.5 0-1.1 0.2-0.6 0.1-1.1 0.4-0.5 0.2-1 0.5-0.4 0.2-0.8 0.6-0.3 0.3-0.5 0.7-0.2 0.5-0.4 0.9-0.1 0.5-0.1 1z"/>
	<path id="Layer" fill-rule="evenodd" class="s0" d="m63.8 312.1q2.8 10.1 15.1 10.1 7.9 0 12-5.4l11.1 6.4q-7.9 11.5-23.3 11.5-13.3 0-21.4-8-8-8-8-20.2 0.1-12.1 8-20.2 7.9-8.1 20.3-8.1 11.8 0 19.5 8.1 7.6 8.2 7.6 20.2 0 0.7 0 1.4-0.1 0.7-0.1 1.4-0.1 0.7-0.2 1.4-0.1 0.7-0.2 1.4zm-0.2-10.7h27.3q-0.2-1.2-0.6-2.3-0.5-1.2-1.1-2.2-0.6-1.1-1.4-2-0.8-0.9-1.8-1.6-0.9-0.7-1.9-1.2-1-0.5-2.1-0.8-1.1-0.4-2.2-0.5-1.1-0.2-2.2-0.2-1.2 0-2.5 0.1-1.2 0.2-2.3 0.5-1.2 0.4-2.3 1-1.1 0.5-2.1 1.2-0.9 0.8-1.7 1.7-0.8 0.9-1.4 1.9-0.6 1-1.1 2.1-0.4 1.1-0.6 2.3z"/>
	<path id="Layer" fill-rule="evenodd" class="s0" d="m154.5 279.6h13.8v75h-13.8v-27.7q-6.1 7.8-17.4 7.8-2.6 0-5.1-0.5-2.6-0.5-5-1.6-2.4-1.1-4.5-2.6-2.1-1.5-3.8-3.5c-2.5-2.7-4.4-5.9-5.7-9.3-1.3-3.5-2-7.1-2-10.8 0-3.7 0.7-7.3 2-10.7 1.3-3.5 3.2-6.6 5.7-9.4q1.7-1.9 3.8-3.5 2.1-1.5 4.5-2.6 2.4-1 5-1.5 2.5-0.6 5.1-0.6 11.3 0 17.4 7.9zm-25.5 37.6q1 1.1 2.3 1.9 1.2 0.8 2.6 1.3 1.4 0.6 2.8 0.8 1.5 0.3 3 0.2 1.4 0.1 2.9-0.2 1.4-0.2 2.8-0.8 1.4-0.5 2.6-1.3 1.2-0.8 2.3-1.9c1.3-1.5 2.3-3.2 3.1-5 0.7-1.9 1-3.9 1-5.9 0-2-0.3-3.9-1-5.8-0.8-1.8-1.8-3.6-3.1-5q-1.1-1.1-2.3-1.9-1.2-0.8-2.6-1.4-1.4-0.5-2.8-0.8-1.5-0.2-2.9-0.2-1.5 0-3 0.3-1.4 0.2-2.8 0.8-1.4 0.5-2.6 1.3-1.3 0.8-2.3 1.9c-1.3 1.4-2.4 3.1-3.1 5-0.8 1.9-1.1 3.8-1.1 5.8 0 2 0.3 4 1.1 5.9 0.7 1.8 1.8 3.5 3.1 5z"/>
	<path id="Layer" class="s0" d="m216.3 279.6h13.8v53.6h-13.8v-6q-5 7.5-16 7.5-2 0.1-4-0.3-2-0.4-3.9-1.1-1.8-0.8-3.5-1.9-1.7-1.1-3.1-2.6-5.7-5.9-5.7-16.3v-32.9h13.8v31.2q0 5.4 2.9 8.2 0.8 0.7 1.7 1.3 0.9 0.5 1.8 0.9 1 0.4 2.1 0.5 1 0.2 2.1 0.1 1.2 0.1 2.3-0.1 1.2-0.2 2.3-0.6 1.1-0.4 2.1-1.1 1-0.6 1.9-1.5 3.2-3.3 3.2-10z"/>
	<path id="Layer" fill-rule="evenodd" class="s0" d="m254.4 312.1q2.8 10.1 15.1 10.1 7.9 0 12-5.4l11.1 6.4q-7.9 11.5-23.3 11.5-13.3 0-21.3-8-8.1-8-8-20.3 0-12 7.9-20.1 7.9-8.1 20.4-8.1 11.7 0 19.4 8.1 7.6 8.2 7.7 20.1-0.1 0.8-0.1 1.5 0 0.7-0.1 1.4-0.1 0.7-0.2 1.4-0.1 0.7-0.2 1.4zm-0.2-10.7h27.3q-0.2-1.2-0.6-2.3-0.4-1.2-1.1-2.2-0.6-1.1-1.4-2-0.8-0.9-1.8-1.6-0.9-0.7-1.9-1.2-1-0.5-2-0.8-1.1-0.4-2.2-0.5-1.1-0.2-2.3-0.2-1.2 0-2.4 0.1-1.2 0.2-2.4 0.5-1.2 0.4-2.3 1-1.1 0.5-2.1 1.2-0.9 0.8-1.7 1.7-0.8 0.9-1.4 1.9-0.6 1-1 2.1-0.5 1.1-0.7 2.3z"/>
	<path id="Layer" class="s0" d="m334.7 278.1q2 0 4 0.3 2 0.4 3.9 1.1 1.9 0.8 3.5 1.9 1.7 1.2 3.1 2.6 5.8 5.9 5.8 16.3v32.9h-13.9v-31.2c0-3.6-1-6.3-2.8-8.2q-0.8-0.7-1.7-1.3-0.9-0.5-1.9-0.9-1-0.4-2.1-0.5-1-0.2-2.1-0.1-1.2-0.1-2.3 0.1-1.2 0.2-2.3 0.6-1.1 0.5-2.1 1.1-1 0.7-1.8 1.5-3.2 3.3-3.2 10v28.9h-13.9v-53.6h13.9v6q5-7.5 15.9-7.5z"/>
	<path id="Layer" class="s0" d="m392.2 334.7c-7.5 0-14.7-3-20-8.3-5.3-5.3-8.3-12.5-8.3-20 0-7.5 3-14.7 8.3-20 5.3-5.3 12.5-8.3 20-8.2q1.9-0.1 3.7 0.2 1.9 0.2 3.7 0.7 1.8 0.4 3.5 1.2 1.8 0.7 3.4 1.6 1.5 0.9 2.9 2 1.4 1.1 2.7 2.3 1.2 1.3 2.2 2.8 1.1 1.4 1.9 3l-11.9 7q-0.4-0.8-0.9-1.6-0.5-0.7-1.1-1.4-0.6-0.7-1.3-1.2-0.8-0.6-1.5-1-0.9-0.5-1.8-0.9-0.9-0.4-1.8-0.6-0.9-0.3-1.9-0.4-0.9-0.1-1.9-0.1-1.4 0-2.8 0.2-1.4 0.3-2.7 0.8-1.4 0.5-2.6 1.3-1.2 0.8-2.2 1.8-1 1.1-1.8 2.3-0.8 1.2-1.3 2.6-0.5 1.4-0.7 2.8-0.3 1.4-0.2 2.9-0.1 1.4 0.2 2.9 0.2 1.4 0.7 2.7 0.6 1.4 1.3 2.6 0.8 1.2 1.8 2.2 1 1 2.2 1.8 1.2 0.8 2.6 1.3 1.3 0.6 2.7 0.8 1.4 0.2 2.8 0.2 1 0 2-0.1 0.9-0.1 1.9-0.3 0.9-0.3 1.8-0.6 0.9-0.4 1.8-0.9 0.7-0.4 1.5-1 0.7-0.5 1.3-1.2 0.6-0.7 1.1-1.4 0.5-0.8 0.9-1.6l12 6.9q-0.9 1.6-1.9 3-1.1 1.4-2.4 2.7-1.3 1.3-2.7 2.4-1.4 1.1-3 2-1.6 0.9-3.3 1.7-1.7 0.7-3.5 1.2-1.8 0.4-3.7 0.7-1.8 0.2-3.7 0.2z"/>
	<path id="Layer" fill-rule="evenodd" class="s0" d="m434.5 312.1q2.8 10.1 15.1 10.1 8 0 12-5.4l11.2 6.4q-8 11.5-23.4 11.5-13.3 0-21.3-8-8-8-8-20.3 0-12 7.9-20.1 7.9-8.1 20.4-8.1 2.7-0.1 5.4 0.4 2.7 0.5 5.2 1.6 2.5 1 4.7 2.6 2.3 1.5 4.1 3.5 7.7 8.1 7.7 20.1 0 0.8-0.1 1.5 0 0.7-0.1 1.4 0 0.7-0.1 1.4-0.1 0.7-0.3 1.4zm-0.2-10.7h27.3q-0.2-1.2-0.6-2.3-0.4-1.2-1-2.2-0.7-1.1-1.5-2-0.8-0.9-1.7-1.6-0.9-0.7-2-1.2-1-0.5-2-0.8-1.1-0.4-2.2-0.5-1.1-0.2-2.2-0.2-1.3 0-2.5 0.1-1.2 0.2-2.4 0.5-1.2 0.4-2.3 1-1.1 0.5-2.1 1.2-0.9 0.8-1.7 1.7-0.8 0.9-1.4 1.9-0.6 1-1 2.1-0.5 1.1-0.7 2.3z"/>
	<path id="Layer" class="s0" d="m579.5 250.6h-26.2l-14.7 23.3-14.5-23.3h-26.7l27.5 41.9-27.6 42.1h26.3l14.6-23.2 14.5 23.2h26.9l-27.6-42 27.5-42z"/>
	<path id="Layer" class="s0" d="m582.7 250.6v21.5h24.2v62.5h22.4v-62.5h24.2v-21.5h-70.8z"/>
	<path id="Layer" class="s0" d="m666.9 244.6h-4.1v10.8h-1.8v-10.8h-4.1v-1.6h10z"/>
	<path id="Layer" class="s0" d="m682.1 255.4h-1.7v-9.6l-4.3 9.6h-1.6l-4.2-9.6v9.6h-1.6v-12.4h2.3l4.4 10.1 4.4-10.1h2.3z"/>
	<path id="Layer" class="s0" d="m383.1 56.9h-6.7l-16.3 28.2h23c15.8 0 30.9 6.3 42.1 17.4 11.1 11.2 17.4 26.3 17.4 42 0 15.8-6.3 30.9-17.4 42.1-11.2 11.1-26.3 17.4-42.1 17.4h-183.5l-16.3 28.2h199.8c23.4 0.2 46-8.9 62.6-25.4 16.6-16.4 26-38.8 26-62.2 0-23.4-9.4-45.9-26-62.3-16.6-16.5-39.2-25.6-62.6-25.4z"/>
	<path id="Layer" class="s0" d="m383.1 175.8c8.3 0 16.3-3.3 22.1-9.2 5.9-5.8 9.2-13.8 9.2-22.1 0-8.2-3.3-16.2-9.2-22.1-5.8-5.8-13.8-9.1-22.1-9.1h-39.2l-36.1 62.5z"/>
	<path id="Layer" class="s0" d="m271 175.8h6.7l16.3-28.2h-23c-15.6-0.2-30.6-6.5-41.5-17.7-11-11.1-17.2-26.1-17.2-41.7 0-15.6 6.2-30.7 17.2-41.8 10.9-11.1 25.9-17.5 41.5-17.7h183.5l16.3-28.1h-199.8c-23.2 0-45.5 9.2-62 25.6-16.4 16.5-25.6 38.8-25.6 62 0 23.2 9.2 45.5 25.6 62 16.5 16.4 38.8 25.6 62 25.6z"/>
	<path id="Layer" class="s0" d="m239.7 88.2c0 4.1 0.8 8.2 2.4 11.9 1.6 3.8 3.9 7.3 6.8 10.2 2.9 2.9 6.3 5.2 10.1 6.8 3.8 1.5 7.9 2.3 12 2.3h39.3l36.1-62.5h-75.4c-4.1 0-8.2 0.8-12 2.4-3.8 1.6-7.2 3.9-10.1 6.8-2.9 2.9-5.2 6.3-6.8 10.1-1.6 3.8-2.4 7.9-2.4 12z"/>
</svg>